<?xml version="1.0" encoding="utf-8"?>
<!-- Generator: Adobe Illustrator 24.3.0, SVG Export Plug-In . SVG Version: 6.00 Build 0)  -->
<svg version="1.0" id="Layer_1" xmlns="http://www.w3.org/2000/svg" xmlns:xlink="http://www.w3.org/1999/xlink" x="0px" y="0px"
	 viewBox="0 0 101.94 121.24" style="enable-background:new 0 0 101.94 121.24;" xml:space="preserve">
<style type="text/css">
	.st0{fill-rule:evenodd;clip-rule:evenodd;}
	.st1{fill-rule:evenodd;clip-rule:evenodd;fill:#FFFFFF;}
</style>
<path class="st0" d="M24.95,5.18c1.57-0.18,3.14-0.35,4.72-0.53C24.42,7.37,18.8,9.66,15.43,15.79c1.14-0.83,2.28-1.66,3.42-2.49
	C15.78,16.4,8.51,28.12,7.97,33.58c1-0.89,1.74-2.56,2.74-3.45c-0.97,3.84-1.5,7.83-1.59,11.81c-0.88-1.25-2.05-1.83-3.33-2.15
	c1.23,1.13,2.05,1.63,2.64,3.14c-3.95-0.56-4.3-0.27-8.43,1.19c1.7,0,3.55-0.28,5.1,0.39c-4.81,2.99-5.21,8.74-4.51,13.57
	c0.73,5.07,2.45,9.11,5.56,13.35c0.71,0.96,2.31,2.17,3.37,4.49c1.57,3.45,2.55,8.12,2.57,8.15c0.43-2.95,0.22-3.71,0.57-7.42
	c0.09,0.06,0.85,9.46,1.06,10.08c0.04-0.74,1.34-5.28,1.38-6.02c-0.41,7.17,0.5,7.24,0.76,9.77c0.9-2.44,1.23-5.91,1.28-6.85
	c0.64,3.19,0.78,8.57,1.54,10.25c0.55-0.85,0.76-5.61,1.3-6.45c1.87,7.18,0.3,11.32,2.45,15.76c0.19-2.29-0.29-3.57,0.33-5.17
	c2.68,7.13,4.15,8.64,8.93,15.01c-0.14-1.02-0.29-2.04-0.43-3.06c5.63,5.08,4.96,3.33,9.07,8.12c-0.35-1.26-0.69-2.52-1.04-3.78
	c3.22,1.8,8.25,1.66,11.67,6.94c3.42-5.28,8.45-5.14,11.67-6.94c-0.35,1.26-0.69,2.52-1.04,3.78c4.11-4.79,3.44-3.04,9.07-8.12
	c-0.14,1.02-0.29,2.04-0.43,3.06c4.78-6.37,6.25-7.88,8.93-15.01c0.62,1.59,0.14,2.88,0.33,5.17c2.16-4.44,0.59-8.58,2.46-15.76
	c0.54,0.85,0.76,5.61,1.3,6.45c0.77-1.68,0.9-7.06,1.54-10.25c0.05,0.94,0.38,4.4,1.28,6.85c0.25-2.53,1.17-2.6,0.76-9.77
	c0.04,0.74,1.34,5.28,1.38,6.02c0.21-0.62,0.97-10.01,1.06-10.08c0.35,3.71,0.14,4.47,0.57,7.42c0.02-0.02,1-4.7,2.57-8.15
	c1.06-2.32,2.66-3.53,3.37-4.49c3.11-4.24,4.83-8.28,5.56-13.35c0.7-4.83,0.29-10.58-4.51-13.57c1.55-0.68,3.41-0.39,5.1-0.39
	c-4.13-1.47-4.48-1.76-8.44-1.19c0.59-1.5,1.41-2,2.64-3.14c-1.28,0.31-2.45,0.9-3.33,2.15c-0.09-3.97-0.62-7.96-1.59-11.81
	c1,0.89,1.74,2.56,2.74,3.45c-0.54-5.46-7.81-17.18-10.88-20.28c1.14,0.83,2.28,1.66,3.42,2.49c-3.37-6.13-8.99-8.41-14.23-11.14
	c1.57,0.18,3.14,0.35,4.72,0.53C69.6,1.02,63.67,1.34,60.11,1.81c2.51-1.34,3.58-1.29,6.42-1.78c-6.44-0.14-9.52,0.22-15.56,2.68
	c-6.04-2.47-9.12-2.82-15.56-2.68c2.84,0.49,3.92,0.45,6.42,1.78C38.26,1.34,32.33,1.02,24.95,5.18L24.95,5.18z"/>
<path class="st1" d="M50.97,84.91c4.38,0.07,8.81,1.1,10.42,3.12c-2.59-1.27-8.51-3.97-10.42,1.88c-1.91-5.85-7.83-3.15-10.42-1.88
	C42.16,86,46.59,84.98,50.97,84.91L50.97,84.91z M50.97,112.61L50.97,112.61c3.33-2.39,6.04-2.44,10.11-6.46l-2.73,4
	c11.77-5.9,16.76-13.22,16.28-18.73c-2.04,0.87-4.4-0.44-4.94-0.77c10.95,2.11,0.96-10.13-18.72-10.67
	C31.29,80.51,21.3,92.76,32.25,90.64c-0.54,0.33-2.9,1.64-4.94,0.77c-0.48,5.5,4.51,12.83,16.28,18.73l-2.73-4
	C44.93,110.16,47.64,110.21,50.97,112.61L50.97,112.61z M50.97,34.92c1.63-2.02,1.63-2.15,3.74-3.48l-1.26,2.38
	c4.92-3.5,5.33-4.55,10.51-6.83c-0.61,0.88-2.18,1.7-2.51,2.68c5.35-2.64,11.24-4.95,14.92-3.48c-2.5,0-3.39,0.26-4.8,1.17
	c8.91-0.18,10.62,5.68,11.62,11.78c-1.2-1.16-2.55-2.65-4.67-2.81c3.05,1.37,3.78,5.15,4.33,7.22c-7.06-6.08-14.88-8.05-22.71-0.42
	c-3.82,3.73-9.58,1.96-5.31-2.13c0.98-0.94,2.46-2.06,4.61-3.38c-2.51,0.45-8.29,3.55-8.45,5.9h-0.06c-0.16-2.35-5.94-5.46-8.45-5.9
	c2.15,1.32,3.63,2.44,4.61,3.38c4.27,4.1-1.48,5.86-5.31,2.13c-7.83-7.63-15.65-5.66-22.71,0.42c0.55-2.07,1.28-5.85,4.33-7.22
	c-2.12,0.16-3.47,1.65-4.67,2.81c1-6.1,2.71-11.97,11.62-11.78c-1.41-0.91-2.3-1.17-4.8-1.17c3.68-1.47,9.57,0.84,14.92,3.48
	c-0.33-0.99-1.89-1.8-2.51-2.68c5.18,2.28,5.59,3.33,10.52,6.83l-1.26-2.38C49.34,32.77,49.34,32.9,50.97,34.92z M50.97,72.28
	c0.08-0.32,0.61-12.65,0.79-13.07c0.96-2.21,1.86-2.01,5.3-1.83c-0.46-0.44-0.92-0.88-1.37-1.33c2.23,0.99,8.64,5.11,9.21,1.33
	c0.27-1.74-0.79-3.59-3.41-4.02c-3.88-0.64-7.58,1.48-10.53,3.6c-2.94-2.12-6.65-4.24-10.53-3.6c-2.62,0.43-3.67,2.28-3.41,4.02
	c0.58,3.78,6.99-0.34,9.21-1.33c-0.46,0.44-0.91,0.88-1.37,1.33c3.44-0.17,4.34-0.38,5.3,1.83C50.36,59.63,50.89,71.96,50.97,72.28z
	 M50.97,52.45c8.07-3.58,9.5-4.18,14.33-0.82c5.71,3.97,5.79,7.55,0.38,11.72c3.01,1.5,5.08,6.4,5.62,9.05l-2.13-2.48
	c1,2.17,3.35,6.52,4.1,8.65l-1.31-1.32c0.61,2.11,1,4.14,1.05,5.91c-7.91-3.69-15.03-5.61-22.04-5.78
	c-7.01,0.18-14.12,2.09-22.04,5.78c0.04-1.78,0.44-3.81,1.05-5.91l-1.31,1.32c0.76-2.13,3.1-6.48,4.1-8.65l-2.13,2.48
	c0.54-2.65,2.61-7.55,5.62-9.05c-5.42-4.17-5.34-7.74,0.38-11.72C41.47,48.28,42.9,48.88,50.97,52.45z M87.79,57.37
	c0.89-3.5,2.54-4.08,6.43-3.67c-5.85-5.33-9.25,2.53-8.45,8.04c-1.45-3.29-1.33-3.94-1.79-5.93c-0.36,2.85-0.68,5.36,0.89,8.43
	c-2.48-2.69-2.98-4.63-2.73-9.75c-0.51,1.85-1.51,4.58-1.64,6.44c-1.4-19.38,18.97-19.13,16.69-3.32c-0.68,4.73-2.25,8.15-4.9,11.76
	c-6.87,9.36-12.03,3-8.63-1.48c1.08-1.42,2.88-1.81,4.22-2.31c-3.98,3.27,1.62,2.46,4.08-2.38C93.47,60.21,93.32,56.15,87.79,57.37z
	 M30.47,43.1c0.7,0,1.26,0.57,1.26,1.26c0,0.62-0.45,1.14-1.04,1.24c0.26,0.17,0.55,0.3,0.85,0.39l-0.01,0
	c1.15,0.41,2.27,0.06,2.98-0.63c0.7-0.59,1.14-1.47,1.14-2.46c0-0.04,0-0.07,0-0.11c1.83,0.84,3.44,2.16,4.61,3.96
	c-5.62,2.97-15.42,1.06-17.19-2.34c1.84-1.52,4.08-2.39,6.36-2.63c-0.13,0.35-0.2,0.72-0.2,1.12c0,0.3,0.04,0.6,0.12,0.88
	C29.56,43.37,29.98,43.1,30.47,43.1z M78.87,44.41c-1.77,3.4-11.57,5.32-17.19,2.34c1.17-1.8,2.78-3.13,4.61-3.96l0,0.11
	c0,0.99,0.45,1.87,1.14,2.46c0.7,0.69,1.82,1.04,2.97,0.63l-0.01,0c0.3-0.09,0.59-0.22,0.85-0.39c-0.59-0.11-1.04-0.62-1.04-1.24
	c0-0.7,0.57-1.26,1.26-1.26c0.49,0,0.91,0.28,1.12,0.68c0.08-0.28,0.12-0.57,0.12-0.88c0-0.39-0.07-0.77-0.2-1.12
	C74.79,42.02,77.02,42.89,78.87,44.41z M14.15,57.37c-0.89-3.5-2.55-4.08-6.43-3.67c5.85-5.33,9.25,2.53,8.44,8.04
	c1.45-3.29,1.33-3.94,1.79-5.93c0.36,2.85,0.68,5.36-0.89,8.43c2.48-2.69,2.98-4.63,2.74-9.75c0.51,1.85,1.51,4.58,1.64,6.44
	c1.4-19.38-18.97-19.13-16.69-3.32c0.68,4.73,2.25,8.15,4.9,11.76c6.87,9.36,12.03,3,8.63-1.48c-1.08-1.42-2.88-1.81-4.22-2.31
	c3.98,3.27-1.61,2.46-4.08-2.38C8.47,60.21,8.62,56.15,14.15,57.37z"/>
</svg>
