<?xml version="1.0" encoding="UTF-8" standalone="no"?>
<!-- Created with Inkscape (http://www.inkscape.org/) -->

<svg
   width="210mm"
   height="297mm"
   viewBox="0 0 210 297"
   version="1.1"
   id="svg5"
   inkscape:version="1.1.2 (b8e25be8, 2022-02-05)"
   sodipodi:docname="banana.svg"
   inkscape:export-filename="/Users/ksergi/Desktop/banana.png"
   inkscape:export-xdpi="96"
   inkscape:export-ydpi="96"
   xmlns:inkscape="http://www.inkscape.org/namespaces/inkscape"
   xmlns:sodipodi="http://sodipodi.sourceforge.net/DTD/sodipodi-0.dtd"
   xmlns="http://www.w3.org/2000/svg"
   xmlns:svg="http://www.w3.org/2000/svg">
  <sodipodi:namedview
     id="namedview7"
     pagecolor="#ffffff"
     bordercolor="#666666"
     borderopacity="1.0"
     inkscape:pageshadow="2"
     inkscape:pageopacity="0.0"
     inkscape:pagecheckerboard="0"
     inkscape:document-units="mm"
     showgrid="false"
     inkscape:zoom="0.31820778"
     inkscape:cx="307.97487"
     inkscape:cy="457.2484"
     inkscape:window-width="1382"
     inkscape:window-height="645"
     inkscape:window-x="0"
     inkscape:window-y="25"
     inkscape:window-maximized="0"
     inkscape:current-layer="layer1" />
  <defs
     id="defs2" />
  <g
     inkscape:label="Layer 1"
     inkscape:groupmode="layer"
     id="layer1">
    <path
       id="path19087"
       style="color:#000000;fill:#000000;stroke-width:1.19823;-inkscape-stroke:none"
       d="m 88.792969,10.279297 c -4.013367,0.002 -8.014657,0.538639 -11.917969,1.457031 -0.258686,-0.25654 -0.895498,0.327267 -1.236328,0.527344 -1.999565,1.193261 -3.535248,3.286568 -3.63379,5.664073 -0.05482,1.428413 0.117097,2.920726 0.704181,4.231828 8.27377,15.886128 14.214718,33.019611 17.187421,50.695896 0.622114,3.710718 1.133781,7.476731 1.548828,11.234375 -8.288191,-0.337429 -16.72869,-0.540513 -24.827217,1.538965 -1.007441,0.24931 -1.999476,0.55342 -2.995048,0.8458 -3.36379,8.164275 -8.183943,15.825941 -14.662109,21.878911 -1.295946,1.20772 -2.743149,2.42789 -4.207032,3.50586 -0.743462,1.61826 -0.679386,3.65838 0.520333,5.04529 1.060755,1.31186 2.556907,2.22549 4.077323,2.90002 7.652828,1.74031 15.838754,1.81514 23.299144,-0.82783 3.320749,-1.14772 6.462488,-2.78554 9.366872,-4.75616 1.434245,5.8099 2.86849,11.61979 4.302734,17.42969 -5.668299,-1.98166 -11.733839,-2.33839 -17.68483,-2.60455 -3.403288,-0.11815 -6.808715,-0.16651 -10.213607,-0.21186 -9.671157,6.06796 -17.964065,14.40555 -23.650852,24.33058 -6.52956,11.24403 -9.731138,24.12761 -10.887201,36.99952 -0.783731,8.62534 -0.697433,17.31166 -0.127963,25.94725 -4.962151,2.62699 -8.965833,6.96049 -11.229036,12.09507 -1.004967,2.20873 -1.718934,4.53884 -2.253385,6.90298 2.057495,1.81946 3.559134,4.26403 5.930076,5.71689 0.655883,0.43169 1.448503,0.40608 2.185756,0.42265 1.290816,0.22562 2.581632,0.45124 3.872449,0.67686 1.438802,1.55859 2.877604,3.11719 4.316406,4.67578 -3.35596,4.36857 -6.980946,8.72436 -8.861196,13.97707 -0.580739,1.5982 -0.840118,3.29002 -0.939585,4.98192 0.659902,-0.45146 0.764081,0.4016 1.082855,0.80582 2.330567,4.07186 5.909165,7.3894 10.138402,9.41751 1.630952,0.80371 3.335633,1.45465 5.073665,1.9876 -0.524682,0.77185 0.746163,0.24054 1.173828,0.32032 13.810863,-1.01049 27.396399,-5.04148 39.476562,-11.81836 14.440121,-8.03105 26.634784,-19.65761 36.577324,-32.76964 12.00899,-15.86999 21.00756,-33.83286 28.00005,-52.41205 4.65204,-12.37904 8.4018,-25.08869 11.40309,-37.9648 6.59845,6.91315 10.17148,16.18227 11.90734,25.42325 0.48948,2.50585 0.84841,5.03598 0.91107,7.59124 0.95197,16.41447 1.90788,32.82873 2.85738,49.24333 1.95334,2.5189 3.83947,5.25246 6.65039,6.89062 2.42878,1.93071 4.6808,4.08841 7.24038,5.84744 0.93723,0.68179 2.37269,1.08842 3.31646,0.19152 7.35998,-6.08547 12.35615,-14.54285 15.77909,-23.35422 2.17777,-5.72198 3.90057,-11.622 4.83399,-17.66521 1.77901,-12.2607 0.22349,-24.77078 -2.80723,-36.70365 -2.66453,-10.68168 -6.98632,-21.05654 -13.51308,-29.97018 -0.48384,-0.31459 -0.34342,-0.82699 -0.26695,-1.318 0.83987,-8.13065 -1.29654,-16.4658 -5.71254,-23.31886 -6.07791,-9.520394 -15.81373,-16.33913 -26.41986,-19.948979 -3.6242,-1.238433 -7.37393,-2.107906 -11.17097,-2.60361 -2.73667,-14.171822 -6.39109,-28.291567 -12.56313,-41.392727 -3.94077,-8.262298 -9.01602,-16.178394 -16.00464,-22.194563 -5.58814,-4.824403 -12.51468,-8.14189 -19.850533,-9.141277 -2.017262,-0.292045 -4.06445,-0.427681 -6.097318,-0.423777 z M 155.4707,112.83398 c 0.96722,3.17657 2.10638,6.32484 3.76172,9.21485 -2.135,1.20622 -4.21666,2.35475 -6.52734,3.12695 -0.45746,-2.51129 -0.63705,-5.08885 -0.34375,-7.58008 0.23784,-2.11878 0.93477,-4.36784 2.1409,-6.21784 0.3449,-0.86477 0.5063,-0.22029 0.64849,0.39771 0.10666,0.35281 0.21332,0.70561 0.31998,1.05841 z m -77.3457,31.2754 c 1.260026,1.84471 2.039416,4.08879 2.472656,6.30283 0.71385,3.71908 0.363303,7.77812 -0.509178,11.54026 -1.815188,7.71029 -5.424852,14.79219 -9.402931,21.60026 -8.240846,13.8727 -18.52799,26.3536 -28.35357,39.10281 -1.157441,1.52955 -2.319363,3.05863 -3.415961,4.63352 -0.146721,-0.84736 -0.364735,-1.69608 -0.05528,-2.53476 1.704338,-9.02263 3.106496,-18.10957 5.093499,-27.05583 2.349184,-10.70119 5.175828,-21.35457 9.641353,-31.39897 2.553482,-5.62684 5.587886,-11.04201 9.904407,-15.49286 2.715087,-2.77966 6.189998,-5.13666 9.928832,-6.09183 1.529797,-0.40835 3.113518,-0.6022 4.696168,-0.60543 z" />
    <path
       style="color:#000000;fill:#504416;stroke-width:1.19823;-inkscape-stroke:none"
       d="m 20.816935,264.31655 c 3.024079,0.0288 6.057402,1.32821 9.127129,3.59 1.397565,1.58519 2.719625,3.163 3.515116,4.70632 0.747397,1.45002 0.966567,2.84119 0.48678,4.24295 -9.095658,-2.64468 -13.021422,-7.15443 -15.743129,-12.18589 0.871705,-0.21005 1.741519,-0.36167 2.614104,-0.35338 z"
       id="path19568" />
    <path
       id="path19564"
       style="color:#000000;fill:#ffeeaa;stroke-width:1.19823;-inkscape-stroke:none"
       d="m 142.96575,84.528478 c 2.6085,13.85697 2.01497,28.328022 1.50714,42.759592 1.26968,-0.17041 2.66617,-0.18745 3.96165,-0.27864 1.35744,-0.0956 2.52598,-0.34229 3.28115,-0.90279 -0.73298,-3.74873 -0.97534,-7.70235 0.0799,-11.44904 0.58295,-2.11618 1.71435,-3.99702 3.03966,-5.73133 0,-0.001 -0.001,-0.004 -0.002,-0.005 l 0.004,-0.002 c 0.51237,-0.66996 0.96519,-1.38829 1.55853,-1.98454 l 0.005,-0.004 0.005,-0.005 c 3.01496,-2.76337 6.38244,-5.77366 9.85522,-7.100392 1.73639,-0.66336 3.50826,-0.90157 5.25578,-0.44706 1.74752,0.45451 3.45202,1.599262 5.06011,3.634092 l 0.002,0.002 h 0.002 c 2.65936,3.49741 4.3566,7.59164 5.72452,11.6992 v 0.002 h 0.002 c 1.41598,4.33427 2.37995,8.78966 3.19199,13.26454 0.37196,-5.79355 -0.65491,-11.67062 -3.11458,-16.93145 -3.51059,-7.58929 -9.53016,-13.853202 -16.55312,-18.333942 -6.88169,-4.39339 -14.77119,-7.1546 -22.86712,-8.18647 z m -59.398776,0.47369 c -1.712862,-0.0109 -3.429368,0.0129 -5.152994,0.0947 -4.582572,0.21762 -9.218628,0.85212 -13.969189,2.31953 -1.241897,2.95376 -2.74317,5.86484 -4.418623,8.69669 5.68846,-3.28259 10.655981,-2.48101 14.474458,0.82106 3.916382,3.386732 6.659082,9.222592 8.188942,15.483132 l 0.03715,-0.0254 0.105264,0.42601 c 5.99e-4,0.002 0.0019,0.004 0.0025,0.007 l 4.914602,19.916 c 1.005734,0.65335 2.042633,1.12079 3.094152,1.80188 1.04147,0.75114 1.919005,1.64738 2.679285,2.64708 0.0208,-9.6379 0.17973,-19.27309 -0.0161,-28.89999 -0.14468,-7.69626 -0.57917,-15.394842 -1.390108,-23.049792 -2.850047,-0.10458 -5.694546,-0.21961 -8.549318,-0.23777 z m 81.516036,37.235692 c -0.28898,0.001 -0.5729,0.005 -0.85078,0.0136 v -6.1e-4 c -1.48467,0.044 -2.79719,0.19165 -3.80066,0.45635 l -0.0892,0.0235 -0.0749,-0.0254 c -0.0395,0.0414 -0.12909,0.15203 -0.2966,0.22229 -2.31991,1.29704 -4.5458,2.65811 -7.84528,3.65763 l -0.0353,0.0118 c -0.93014,0.69126 -2.22571,0.9135 -3.61305,1.01116 -1.00828,0.071 -1.9921,0.1331 -2.96969,0.20619 0.51644,0.19492 1.04971,0.34293 1.53996,0.60372 v -0.002 c 2.51,1.31187 4.59796,3.29332 6.33257,5.47374 l 0.009,0.0124 c 26.33344,30.05999 20.22254,64.7258 19.46708,97.59671 2.94917,2.41582 4.97574,4.2118 6.35611,5.22111 0.70272,0.51381 1.25128,0.82863 1.65884,0.94366 0.40755,0.11505 0.64778,0.0689 0.91765,-0.15232 10.20149,-8.36107 16.06951,-21.87194 19.20454,-34.80037 3.60495,-14.69972 1.45266,-31.01437 -2.71024,-45.59801 -2.61033,-9.11229 -6.57662,-17.88855 -12.12521,-25.58418 -2.0661,-2.87936 -4.511,-5.61262 -7.68058,-7.19388 -3.57738,-1.32353 -9.05977,-2.11184 -13.39457,-2.09662 z m -5.11213,0.68979 c 0.003,-0.002 0.006,-0.003 0.009,-0.005 l -0.0489,0.0235 c 0.0153,-0.005 0.0261,-0.0127 0.0402,-0.0186 z M 58.753088,129.9655 c -15.401413,9.83901 -24.428608,23.04954 -29.328485,38.01527 -4.907529,14.98909 -5.671974,31.73854 -4.518934,48.56584 l 0.01362,0.19443 -0.172756,0.091 c -7.603132,3.94841 -11.409389,10.26895 -13.223052,17.92899 1.157327,1.10475 2.345568,2.54792 3.470625,3.66753 0.584294,0.58145 1.153485,1.06849 1.668749,1.3641 0.507981,0.29136 0.93719,0.38122 1.317661,0.27183 5.839705,-3.83913 11.650809,-7.64454 14.971058,-13.37971 1.090648,-20.24596 9.968829,-54.23278 23.564336,-74.05838 6.807172,-9.92653 14.838756,-16.34175 23.709233,-15.54196 8.749092,0.78885 18.148718,8.67129 27.875217,26.67707 0.57339,-2.14114 0.87799,-4.36167 0.68113,-6.5623 -0.29172,-3.55319 -1.83754,-6.9297 -4.04153,-9.72642 -2.98906,-3.80524 -6.948969,-6.74114 -11.074429,-9.27441 l -0.14303,-0.0867 v -0.0514 c -1.015866,-1.51092 -2.019248,-2.38954 -3.03533,-3.04028 -8.4e-4,-0.001 -0.001,-0.002 -0.0019,-0.002 -0.265454,-0.16992 -0.544914,-0.3197 -0.812393,-0.46998 -0.762974,-0.42864 -1.524543,-0.81913 -2.317051,-1.34119 -7.099893,-3.07693 -17.955274,-3.07036 -28.602784,-3.2409 z" />
    <path
       id="path19562"
       style="color:#000000;fill:#ffdd55;stroke-width:1.19823;-inkscape-stroke:none"
       d="m 67.124076,94.510628 c -2.296711,-0.0371 -4.815686,0.71963 -7.559214,2.47495 -3.584514,5.855522 -8.154548,11.256042 -13.85216,15.556202 -0.397811,1.03598 -0.490958,2.00951 0.0192,3.00933 0.514948,1.0092 1.686641,2.07345 3.879917,3.15235 13.811267,3.07755 24.051807,0.0973 32.567529,-5.94433 -1.499443,-6.26111 -4.261343,-12.07984 -8.069434,-15.372932 -1.925806,-1.66535 -4.10117,-2.70546 -6.529484,-2.85761 -0.151138,-0.009 -0.303237,-0.0155 -0.45635,-0.018 z m 102.427714,5.23226 c -0.20315,0.003 -0.40714,0.0147 -0.61115,0.0347 l 6.2e-4,-6.2e-4 c -0.81604,0.08 -1.63958,0.290132 -2.4669,0.606202 -3.30579,1.26292 -6.6457,4.21762 -9.65335,6.97407 -0.001,10e-4 -0.001,0.004 -0.002,0.005 l -0.007,0.005 c -0.50115,0.50429 -0.87122,1.11737 -1.31271,1.67556 1.34235,4.29812 2.32195,8.46086 5.03597,13.054 4.36495,-1.05105 13.01397,-0.23321 18.17481,1.68299 l 0.0142,0.007 0.0136,0.007 c 2.6134,1.30178 4.63296,3.39698 6.43598,5.6304 -0.84855,-4.91005 -1.89051,-9.79234 -3.43533,-14.52152 -1.35802,-4.07786 -3.03549,-8.1059 -5.63102,-11.52087 -1.54863,-1.95958 -3.13578,-3.00727 -4.73875,-3.424182 -0.60111,-0.15636 -1.20665,-0.22428 -1.81612,-0.21486 z m -29.36873,27.676452 c -0.43931,0.005 -0.87787,0.0298 -1.31457,0.0725 h -0.002 l 6.1e-4,-10e-4 c -4.4151,0.40995 -8.56898,2.21652 -12.93202,3.3022 l -0.0211,0.005 -0.0211,0.002 c -0.6587,0.0672 -1.17132,0.34426 -1.57525,0.86813 l -0.0118,0.0136 -0.01,0.0124 c -2.32614,2.41429 -3.96755,5.40843 -5.46198,8.43167 l -0.002,0.002 c -3.84037,7.9634 -6.45245,16.48558 -10.30476,24.50985 -4.7e-4,0.001 -0.001,0.004 -0.002,0.005 -4.1e-4,0.001 4.1e-4,0.004 0,0.005 -10.212949,35.89919 -28.428765,66.83552 -59.471843,89.7409 l -0.355424,-0.48236 C 79.590793,231.1116 97.721421,200.35364 107.91394,164.5963 98.107451,146.21466 88.706567,138.44969 80.172463,137.68022 71.620342,136.90914 63.763449,143.12 57.012465,152.9646 43.510491,172.65379 34.602893,206.71664 33.539767,226.81244 l -0.005,0.0725 -0.03468,0.0613 c -3.302508,5.73414 -8.980928,9.50869 -14.650311,13.23667 l 3.982707,0.69722 4.778996,5.17901 10.496089,-16.73269 -0.589481,-3.62047 0.01177,-0.0564 c 1.758553,-8.20118 4.443205,-29.04115 10.456457,-47.72806 3.006627,-9.34345 6.84494,-18.15472 11.841612,-24.60584 4.996676,-6.45113 11.18666,-10.54951 18.820636,-10.35119 l 0.156658,0.002 0.08483,0.13127 c 3.878465,5.89649 3.978691,13.21746 1.801876,21.0931 -2.176819,7.87564 -6.627859,16.33309 -11.905389,24.59407 -10.553032,16.51879 -24.436451,32.26514 -30.112398,40.76514 l -0.0025,0.005 -0.0025,0.002 -10.774729,17.17542 -0.191331,0.3065 -0.0192,-0.0186 c -4.47599,5.73826 -8.916156,11.45618 -9.583384,17.06272 4.097373,-0.97106 8.19355,0.37654 12.227995,3.35607 l 0.02601,0.0192 0.02105,0.0254 c 1.412104,1.6008 2.768656,3.20845 3.615519,4.85145 0.769682,1.49324 1.006435,3.04144 0.528799,4.58209 32.944974,-2.61257 57.992966,-20.94736 76.588432,-46.38687 18.66522,-25.53494 30.81698,-58.20303 37.86851,-89.16504 l 0.11703,-0.51951 0.3839,0.36966 c 7.75942,7.5241 12.20479,18.33203 13.98777,31.7601 l 0.002,0.0124 3.0186,51.98259 c 1.81689,2.34701 3.58162,4.70767 5.79016,6.04961 0.80218,-32.79863 6.6969,-67.0193 -19.3451,-96.73602 l -0.005,-0.007 -0.004,-0.004 c -1.70041,-2.13967 -3.73725,-4.06439 -6.15301,-5.327 h -0.002 c -0.85029,-0.45233 -1.74886,-0.79983 -2.67681,-1.04831 -1.26779,-0.33947 -2.58863,-0.49479 -3.90654,-0.47926 z" />
    <path
       style="color:#000000;fill:#fff6d5;stroke-width:1.19823;-inkscape-stroke:none"
       d="m 90.356301,11.431858 c 3.58359,0.124486 7.14081,0.696587 10.554709,1.816065 h 0.002 c 6.55918,2.102713 12.37012,6.19006 17.02561,11.242752 6.05584,6.554996 10.41732,14.50049 13.87793,22.70549 4.94728,11.864561 8.09889,24.402957 10.50087,37.023383 2.68374,13.89773 2.06938,28.483842 1.5563,43.070692 -1.65642,-0.397 -3.37394,-0.5582 -5.06439,-0.39316 -4.5408,0.42162 -8.72385,2.24447 -13.02137,3.31384 l 0.0422,-0.007 c -0.79996,0.0816 -1.49104,0.45591 -1.98692,1.09759 -6.9e-4,9e-4 -10e-4,0.001 -0.002,0.002 -2.38828,2.48731 -4.04912,5.53135 -5.54649,8.56077 h -0.002 v 0.002 c -3.41596,7.08272 -5.94765,14.51309 -9.10607,21.65469 0.21701,-1.44692 0.32266,-2.9077 0.19191,-4.37165 -0.3033,-3.69415 -1.9034,-7.17548 -4.16807,-10.0492 -3.01899,-3.84336 -6.985429,-6.78067 -11.088289,-9.31202 0.0152,-9.83165 0.18381,-19.66958 -0.0164,-29.51105 -0.26912,-14.315772 -1.42105,-28.673649 -4.455911,-42.703271 v -0.0024 C 86.37496,50.197933 80.863235,35.33341 73.592807,21.410853 73.114418,19.819977 72.895283,18.101265 73.412606,16.547731 v -0.0024 c 0.516102,-1.598324 1.8581,-2.809399 3.341933,-3.622768 0.958671,-0.229145 1.921974,-0.438242 2.890259,-0.620176 3.517575,-0.671003 7.127911,-0.995075 10.711506,-0.870589 z"
       id="path19548" />
  </g>
</svg>
