<?xml version="1.0" encoding="UTF-8" standalone="no"?>
<!-- Created with Inkscape (http://www.inkscape.org/) -->

<svg
   xmlns:dc="http://purl.org/dc/elements/1.1/"
   xmlns:cc="http://creativecommons.org/ns#"
   xmlns:rdf="http://www.w3.org/1999/02/22-rdf-syntax-ns#"
   xmlns:svg="http://www.w3.org/2000/svg"
   xmlns="http://www.w3.org/2000/svg"
   xmlns:xlink="http://www.w3.org/1999/xlink"
   xmlns:sodipodi="http://sodipodi.sourceforge.net/DTD/sodipodi-0.dtd"
   xmlns:inkscape="http://www.inkscape.org/namespaces/inkscape"
   width="200mm"
   height="200mm"
   viewBox="0 0 200 200"
   version="1.1"
   id="svg5855"
   inkscape:version="0.92.3 (2405546, 2018-03-11)"
   sodipodi:docname="Banana.svg"
   inkscape:export-filename="C:\Users\Arsenr\Desktop\Image, dessins\Vetceur SVG\banana1.png"
   inkscape:export-xdpi="73"
   inkscape:export-ydpi="73">
  <defs
     id="defs5849">
    <linearGradient
       inkscape:collect="always"
       id="linearGradient25">
      <stop
         style="stop-color:#695500;stop-opacity:1"
         offset="0"
         id="stop21" />
      <stop
         style="stop-color:#3c3100;stop-opacity:1"
         offset="1"
         id="stop23" />
    </linearGradient>
    <filter
       inkscape:collect="always"
       style="color-interpolation-filters:sRGB"
       id="filter6457"
       x="-0.0075689983"
       width="1.015138"
       y="-0.028944574"
       height="1.0578891">
      <feGaussianBlur
         inkscape:collect="always"
         stdDeviation="0.37758398"
         id="feGaussianBlur6459" />
    </filter>
    <linearGradient
       inkscape:collect="always"
       xlink:href="#linearGradient25"
       id="linearGradient27"
       x1="82.898781"
       y1="94.053833"
       x2="88.742775"
       y2="94.104874"
       gradientUnits="userSpaceOnUse" />
  </defs>
  <sodipodi:namedview
     id="base"
     pagecolor="#ffffff"
     bordercolor="#666666"
     borderopacity="1.0"
     inkscape:pageopacity="0.0"
     inkscape:pageshadow="2"
     inkscape:zoom="0.7"
     inkscape:cx="281.4691"
     inkscape:cy="397.81467"
     inkscape:document-units="mm"
     inkscape:current-layer="g6471"
     showgrid="false"
     inkscape:snap-global="true"
     inkscape:window-width="1292"
     inkscape:window-height="745"
     inkscape:window-x="66"
     inkscape:window-y="-8"
     inkscape:window-maximized="1" />
  <metadata
     id="metadata5852">
    <rdf:RDF>
      <cc:Work
         rdf:about="">
        <dc:format>image/svg+xml</dc:format>
        <dc:type
           rdf:resource="http://purl.org/dc/dcmitype/StillImage" />
        <dc:title></dc:title>
      </cc:Work>
    </rdf:RDF>
  </metadata>
  <g
     inkscape:label="Calque 1"
     inkscape:groupmode="layer"
     id="layer1"
     transform="translate(0,-97)">
    <g
       id="g6471">
      <path
         transform="matrix(0.95676803,0.29085208,-0.31734241,0.94831102,0,0)"
         style="opacity:1;fill:url(#linearGradient27);fill-opacity:1;stroke-width:0.58025324"
         d="m 84.748824,88.201156 c 0,0 0.789596,-0.130457 1.454127,0.0056 0.541912,0.110952 1.103018,0.227935 1.39684,1.242809 0,5.463808 0,16.391425 0,16.391425 0,0.55012 -0.442879,0.993 -0.993001,0.993 h -2.365834 c -0.550122,0 -0.993001,-0.44288 -0.993001,-0.993 l 0,-16.391425 c 0.240078,-0.994902 1.124707,-1.137507 1.500869,-1.248411 0.376162,-0.110904 0,2e-6 0,2e-6 z"
         id="rect6406"
         inkscape:connector-curvature="0"
         sodipodi:nodetypes="cscssssczc" />
      <path
         inkscape:connector-curvature="0"
         id="path5857"
         d="m 50.304285,120.43809 c -0.794457,-0.90749 -1.593137,-0.92103 -2.469869,0.12103 -21.717513,25.81285 -19.421453,73.88972 15.686556,117.65145 33.422137,41.66031 76.023898,52.34047 106.874478,42.47128 l 1.85295,-6.71791 C 159.52446,265.89315 118.88314,248.79082 91.954561,215.22465 61.235054,176.93314 55.865465,126.79055 50.304285,120.43809 Z"
         style="opacity:1;fill:#d4aa00;fill-opacity:1;stroke-width:0.3461231" />
      <path
         sodipodi:nodetypes="cssccsc"
         inkscape:connector-curvature="0"
         style="opacity:1;fill:#997b00;fill-opacity:1;stroke-width:0.26050448"
         d="m 50.304286,120.43809 c -0.776942,-0.92154 -1.613001,-0.9051 -2.037962,-0.22547 -10.526693,16.83498 -1.966074,58.6711 33.141937,102.43283 33.422139,41.66031 67.777599,58.20226 88.402179,56.53691 l 2.43796,-5.21842 C 161.1728,264.57074 117.32012,248.80924 91.317618,214.52066 61.643516,175.39047 55.742839,126.88893 50.304286,120.43809 Z"
         id="path6433" />
      <path
         id="path6435"
         d="m 23.154142,71.409593 c -0.720896,0.01756 -1.026216,0.376195 -0.868164,0.828933 3.91511,11.214713 26.264593,30.479234 59.829126,30.479234 31.952776,0 52.911566,-17.398564 59.855626,-27.646387 l -1.16811,-2.347131 C 134.16286,77.588902 118.62984,93.681994 81.844468,94.29599 49.048236,94.843403 30.090297,77.145335 23.154142,71.409593 Z"
         style="opacity:1;fill:#b69300;fill-opacity:1;stroke-width:0.15584821;filter:url(#filter6457)"
         inkscape:connector-curvature="0"
         sodipodi:nodetypes="cssccsc"
         transform="matrix(1.0459854,1.3038087,-1.3038087,1.0459854,119.18984,15.556127)" />
      <path
         sodipodi:nodetypes="csscc"
         inkscape:connector-curvature="0"
         id="rect6419"
         d="m 170.81315,272.84521 c 0,0 1.94968,1.29334 2.15793,1.95644 0.36294,1.15568 -0.4108,3.65501 -1.45494,5.06935 -0.95477,1.29326 -3.96526,1.61613 -3.96526,1.61613 z"
         style="opacity:1;fill:#5b4a00;fill-opacity:1;stroke-width:0.44225818" />
    </g>
  </g>
</svg>
