<svg width="31" height="24" viewBox="0 0 31 24" fill="none" xmlns="http://www.w3.org/2000/svg">
<path d="M25.8963 2.29273C23.9842 1.41538 21.9337 0.768987 19.7899 0.39877C19.7508 0.391625 19.7118 0.409481 19.6917 0.445193C19.428 0.914212 19.1359 1.52609 18.9314 2.00701C16.6255 1.6618 14.3315 1.6618 12.0729 2.00701C11.8683 1.5154 11.5656 0.914212 11.3007 0.445193C11.2806 0.410672 11.2416 0.392816 11.2026 0.39877C9.05989 0.767804 7.00945 1.4142 5.09617 2.29273C5.07961 2.29987 5.06541 2.31179 5.05599 2.32725C1.16674 8.13771 0.101312 13.8053 0.623975 19.4027C0.62634 19.4301 0.641712 19.4563 0.662998 19.4729C3.22901 21.3574 5.71463 22.5014 8.1541 23.2597C8.19314 23.2716 8.23451 23.2573 8.25935 23.2251C8.83641 22.4371 9.3508 21.6062 9.79185 20.7324C9.81787 20.6812 9.79303 20.6205 9.73983 20.6003C8.92391 20.2908 8.147 19.9134 7.39966 19.4848C7.34055 19.4503 7.33582 19.3658 7.3902 19.3253C7.54747 19.2075 7.70477 19.0848 7.85494 18.961C7.88211 18.9384 7.91997 18.9337 7.95192 18.9479C12.8616 21.1895 18.1769 21.1895 23.0287 18.9479C23.0606 18.9325 23.0985 18.9372 23.1268 18.9598C23.2771 19.0837 23.4343 19.2075 23.5928 19.3253C23.6472 19.3658 23.6436 19.4503 23.5845 19.4848C22.8372 19.9217 22.0602 20.2908 21.2431 20.5991C21.1899 20.6193 21.1663 20.6812 21.1923 20.7324C21.6428 21.605 22.1572 22.4359 22.7236 23.2239C22.7473 23.2573 22.7898 23.2716 22.8289 23.2597C25.2802 22.5014 27.7658 21.3574 30.3318 19.4729C30.3543 19.4563 30.3685 19.4313 30.3708 19.4039C30.9964 12.9327 29.3231 7.31156 25.9353 2.32844C25.927 2.31179 25.9128 2.29987 25.8963 2.29273ZM10.525 15.9945C9.04687 15.9945 7.82892 14.6374 7.82892 12.9708C7.82892 11.3042 9.02325 9.94717 10.525 9.94717C12.0386 9.94717 13.2448 11.3161 13.2211 12.9708C13.2211 14.6374 12.0268 15.9945 10.525 15.9945ZM20.4934 15.9945C19.0153 15.9945 17.7974 14.6374 17.7974 12.9708C17.7974 11.3042 18.9917 9.94717 20.4934 9.94717C22.007 9.94717 23.2132 11.3161 23.1896 12.9708C23.1896 14.6374 22.007 15.9945 20.4934 15.9945Z" fill="rgba(255, 255, 255, 0.87)"/>
</svg>
